<svg width="50" height="50" viewBox="0 0 50 50" fill="none" xmlns="http://www.w3.org/2000/svg">
<path fill-rule="evenodd" clip-rule="evenodd" d="M31.8573 22.9912V17.132C31.8573 16.947 32.0092 16.7923 32.1971 16.7923H33.6854C33.8717 16.7923 34.0235 16.947 34.0235 17.132V20.5422C34.0235 20.8569 33.9753 21.1634 33.8841 21.456C33.7931 21.7543 33.655 22.0358 33.4837 22.2872C33.3388 22.497 33.169 22.6903 32.9812 22.8587C32.8031 23.0161 32.6029 23.157 32.3849 23.2729C32.3311 23.3088 32.2661 23.331 32.1971 23.331C32.0091 23.3309 31.8573 23.1791 31.8573 22.9912ZM32.5366 17.4716V22.345C32.683 22.2153 32.8127 22.0662 32.9232 21.9061C33.0584 21.7072 33.1661 21.4891 33.2381 21.2571C33.3071 21.0335 33.3457 20.7933 33.3457 20.5421V17.4716H32.5366ZM18.0253 17.132V22.9912C18.0239 23.0437 18.0101 23.0962 17.9852 23.1459C17.8997 23.3114 17.6952 23.3751 17.5295 23.2896C17.3004 23.1707 17.0891 23.0244 16.9028 22.8587C16.7137 22.6903 16.5439 22.4971 16.4003 22.2872C16.2264 22.0358 16.0896 21.7543 15.9973 21.456C15.9075 21.1634 15.8592 20.8568 15.8592 20.5422V17.132C15.8592 16.947 16.011 16.7923 16.1988 16.7923H17.6857C17.872 16.7923 18.0253 16.947 18.0253 17.132ZM23.9107 15.4035C23.723 15.4035 23.5711 15.2516 23.5711 15.0638C23.5711 14.876 23.723 14.7241 23.9107 14.7241H31.8573V13.5811H18.0253V15.5388C18.0253 15.7266 17.872 15.8785 17.6856 15.8785H15.0611V20.658C15.0611 21.097 15.1329 21.514 15.2655 21.9033C15.4021 22.3091 15.6065 22.6875 15.8618 23.0216C16.1103 23.3446 16.4058 23.6263 16.7371 23.8582C17.0629 24.0874 17.4274 24.2669 17.8153 24.3884C17.9423 24.427 18.0403 24.5402 18.0528 24.6811C18.1148 25.3713 18.2833 26.0395 18.5402 26.658L18.5457 26.6719C18.8122 27.3151 19.1739 27.9115 19.6116 28.4418C20.0562 28.9774 20.5807 29.4468 21.1633 29.8308C21.735 30.2062 22.37 30.5017 23.0437 30.6949C23.1624 30.7281 23.2564 30.8247 23.2839 30.9518C23.375 31.3825 23.4108 31.8187 23.3999 32.2522C23.3888 32.6803 23.3308 33.1082 23.2369 33.5335L23.2342 33.5444C23.1348 33.9944 22.9926 34.4417 22.82 34.8892C22.671 35.2701 22.4998 35.6513 22.3134 36.0323H27.5609C27.3842 35.6789 27.2199 35.3199 27.0749 34.9555L27.0611 34.9278C26.8886 34.4916 26.7464 34.0443 26.6442 33.5915C26.5476 33.1635 26.4895 32.7271 26.4798 32.2882C26.4702 31.8464 26.5074 31.399 26.6027 30.9489C26.6275 30.8302 26.7174 30.728 26.843 30.6948C27.5165 30.4988 28.1489 30.2061 28.7206 29.8307C29.3033 29.4467 29.8264 28.9774 30.2709 28.439C30.71 27.9088 31.0731 27.3124 31.3383 26.6718C31.5966 26.0478 31.7648 25.3796 31.8297 24.6838C31.8408 24.5484 31.9305 24.427 32.0673 24.3855C32.4565 24.2641 32.8211 24.0846 33.1469 23.8582C33.4783 23.6263 33.7736 23.3419 34.0194 23.0216C34.2762 22.6875 34.4806 22.3091 34.6186 21.9033C34.7499 21.514 34.8231 21.0943 34.8231 20.658V15.8785H32.1971C32.0092 15.8785 31.8573 15.7266 31.8573 15.5388V15.4035H23.9107ZM22.2016 14.7242C22.3892 14.7242 22.5412 14.8761 22.5412 15.0639C22.5412 15.2517 22.3893 15.4036 22.2016 15.4036H20.5228C20.335 15.4036 20.1831 15.2517 20.1831 15.0639C20.1831 14.8761 20.335 14.7242 20.5228 14.7242H22.2016ZM19.6157 38.7549H30.2684V36.7115H27.7875C25.0636 36.7115 22.3397 36.7115 19.6158 36.7115C19.6157 38.1031 19.6157 36.764 19.6157 38.7549ZM27.5871 37.1837C27.7749 37.1837 27.9268 37.3384 27.9268 37.5233C27.9268 37.7111 27.7749 37.8631 27.5871 37.8631H26.6222C26.4343 37.8631 26.2824 37.7111 26.2824 37.5233C26.2824 37.3384 26.4343 37.1837 26.6222 37.1837H27.5871ZM27.4781 20.1887C26.8291 19.5397 25.9319 19.1366 24.942 19.1366C23.9591 19.1366 23.0685 19.5314 22.4225 20.1721L22.4059 20.1888C21.757 20.8376 21.3553 21.7349 21.3553 22.7234C21.3553 23.7146 21.7571 24.6121 22.4059 25.2609C23.0534 25.9099 23.9507 26.3102 24.9421 26.3102C25.932 26.3102 26.8292 25.9098 27.4782 25.2609C28.1271 24.612 28.5289 23.7146 28.5289 22.7234C28.5289 21.7405 28.1341 20.8514 27.4948 20.2053L27.4781 20.1887ZM24.942 18.4574C26.1196 18.4574 27.1855 18.9351 27.9587 19.7082L27.9778 19.7304C28.7371 20.5007 29.2066 21.5583 29.2066 22.7234C29.2066 23.9024 28.7288 24.9682 27.9587 25.7414C27.1855 26.5118 26.1196 26.9894 24.942 26.9894C23.7657 26.9894 22.6984 26.5117 21.9269 25.7385C21.1551 24.9681 20.6759 23.9023 20.6759 22.7233C20.6759 21.5471 21.1536 20.4785 21.9253 19.7081L21.946 19.6889C22.7151 18.9296 23.774 18.4574 24.942 18.4574ZM25.2609 22.1739L24.942 21.1854L24.6231 22.1739C24.5788 22.3092 24.4505 22.4087 24.3 22.4087L23.2604 22.4059L24.0956 23.0106C24.2171 23.0935 24.2738 23.248 24.2269 23.3944L23.9036 24.3828L24.7418 23.7727C24.8578 23.687 25.0192 23.6815 25.1407 23.7699L25.9803 24.3828L25.657 23.3944C25.6143 23.259 25.6584 23.1045 25.7799 23.0161L26.6222 22.4059L25.6032 22.4087C25.4528 22.4169 25.3092 22.3258 25.2609 22.1739ZM25.4072 20.4233L25.8296 21.7321L27.2297 21.7294C27.3815 21.7294 27.5084 21.8288 27.5527 21.9641L27.6356 22.2208C27.6812 22.3645 27.6273 22.5136 27.5113 22.5991L26.3779 23.4191L26.8129 24.7528C26.8639 24.9074 26.7963 25.073 26.6608 25.1504L26.4566 25.2884C26.331 25.3739 26.168 25.3631 26.0563 25.2745L24.9421 24.4627L23.8087 25.2883C23.6872 25.3767 23.527 25.3712 23.4109 25.2883L23.1928 25.1311C23.0727 25.0426 23.0273 24.8881 23.0713 24.7527L23.5048 23.419L22.3714 22.599C22.2485 22.5106 22.2029 22.3506 22.2499 22.2152L22.3313 21.964C22.3782 21.8148 22.5218 21.721 22.6736 21.7293L24.0543 21.732L24.485 20.4011C24.5306 20.2574 24.6646 20.1637 24.8065 20.1637H25.076C25.236 20.1639 25.3714 20.2742 25.4072 20.4233ZM30.4933 5.86924C30.6839 6.20059 30.9088 6.5209 31.167 6.82734C31.4239 7.12842 31.7027 7.40439 31.9982 7.65029C32.3034 7.90146 32.6277 8.12236 32.9647 8.31289C33.3097 8.50615 33.6671 8.66631 34.0303 8.79062C34.3906 8.91758 34.7593 9.00869 35.1319 9.06953C35.1362 8.69394 35.1071 8.31289 35.0451 7.9373C34.9828 7.55635 34.8835 7.17803 34.751 6.80244C34.6184 6.43525 34.4556 6.0791 34.2608 5.73945C34.0703 5.41084 33.8453 5.08789 33.5884 4.78408C33.3316 4.48047 33.0513 4.2042 32.7545 3.9585C32.4509 3.70732 32.1277 3.48633 31.7909 3.2958C31.4457 3.10254 31.0883 2.94238 30.7251 2.81816C30.3648 2.69385 29.9935 2.6 29.6206 2.53936C29.6179 2.91484 29.6469 3.2958 29.7089 3.67139C29.7724 4.05244 29.8704 4.43066 30.0042 4.80625C30.1358 5.17344 30.2999 5.52959 30.4933 5.86924ZM18.7832 6.82725C19.0398 6.5208 19.2664 6.20049 19.4568 5.86914C19.6501 5.52949 19.8145 5.17334 19.9455 4.80605C20.0796 4.43047 20.1775 4.05225 20.2409 3.67119C20.3031 3.29561 20.3321 2.91465 20.3279 2.53916C19.9566 2.5998 19.5853 2.69365 19.2249 2.81797C18.8617 2.94209 18.5041 3.10234 18.159 3.29561C17.8221 3.48613 17.499 3.70713 17.1954 3.9583C16.8973 4.2041 16.6183 4.48027 16.3615 4.78389C16.1047 5.08769 15.8796 5.41064 15.6891 5.73926C15.4944 6.07891 15.3315 6.43506 15.1989 6.80225C15.0665 7.17783 14.9669 7.55615 14.9049 7.93711C14.8427 8.3127 14.8124 8.69375 14.8165 9.06934C15.1894 9.0085 15.5594 8.91728 15.9195 8.79043C16.2826 8.66621 16.6402 8.50605 16.9855 8.3127C17.3224 8.12217 17.6467 7.90127 17.9519 7.6501C18.2476 7.4043 18.5264 7.12832 18.7832 6.82725ZM11.0132 10.0302C11.3722 9.69062 11.7478 9.36484 12.1342 9.05C12.6326 8.64414 13.1531 8.26309 13.6874 7.90693C13.8518 7.79648 14.0754 7.84346 14.1844 8.00635C14.2936 8.17197 14.248 8.39297 14.0836 8.50342C13.5646 8.84853 13.0648 9.21846 12.5843 9.60791C12.1232 9.9835 11.6759 10.3811 11.2479 10.798C11.2852 10.9443 11.3169 11.0963 11.3445 11.2453C11.419 11.6567 11.4578 12.0848 11.4578 12.5292C11.4578 12.971 11.4191 13.3989 11.3445 13.8104C11.2672 14.2384 11.1513 14.6525 11.0022 15.0502C10.853 15.4533 10.6652 15.8398 10.4471 16.2099C10.229 16.5771 9.97911 16.9195 9.7044 17.2397L9.69327 17.2508C9.41173 16.9277 9.15762 16.5771 8.93956 16.2099C8.72149 15.8454 8.5336 15.4561 8.38184 15.0502C8.23409 14.6525 8.11807 14.2384 8.04219 13.8104C7.96768 13.3989 7.92891 12.971 7.92891 12.5292C7.92891 12.0847 7.96758 11.6566 8.04219 11.2453C8.11954 10.8173 8.23409 10.4032 8.38184 10.0056C8.53233 9.60234 8.72012 9.21592 8.93956 8.8459C9.15616 8.48144 9.40479 8.13623 9.68087 7.81592L9.69317 7.80488C9.97491 8.13086 10.2261 8.47861 10.4442 8.8459C10.6638 9.21035 10.8516 9.59971 11.0021 10.0056L11.0132 10.0302ZM6.09004 19.3382L6.08321 19.3574C6.25577 19.5231 6.41993 19.6999 6.57745 19.8848C6.85215 20.2105 7.10196 20.5613 7.31876 20.9368C7.53692 21.3178 7.71924 21.7127 7.8627 22.1103C8.00909 22.5161 8.1168 22.9332 8.18594 23.35C8.25772 23.7808 8.28946 24.2115 8.28389 24.6367C8.27686 25.062 8.23282 25.4899 8.15128 25.9097C7.74678 25.7716 7.35479 25.5949 6.98184 25.3878C6.60919 25.1807 6.25147 24.9377 5.91612 24.6615C5.59581 24.3964 5.28926 24.0955 5.01046 23.7669C4.73692 23.4438 4.48985 23.096 4.27169 22.7204L4.25665 22.6955C4.03985 22.3173 3.85889 21.928 3.71817 21.5332C3.57178 21.1273 3.46407 20.7103 3.39366 20.2905C3.32188 19.8625 3.29014 19.4318 3.29561 19.0067C3.30128 18.5814 3.34532 18.1562 3.42823 17.731C3.83399 17.8719 4.22608 18.0459 4.59893 18.2557C4.90811 18.4269 5.20645 18.6229 5.48936 18.8438C5.67862 18.2391 5.89395 17.6454 6.13419 17.0683C6.41846 16.3891 6.73604 15.7264 7.08682 15.0913C7.18067 14.9174 7.39874 14.8538 7.57286 14.9506C7.74678 15.0444 7.81016 15.2625 7.71495 15.4364C7.3753 16.055 7.06758 16.6901 6.79698 17.3445C6.52637 17.9936 6.28887 18.6589 6.09004 19.3382ZM5.80147 29.3999C5.80694 29.4248 5.80967 29.4524 5.80967 29.4773C6.13419 29.5463 6.4545 29.6346 6.76934 29.7479C7.1669 29.8915 7.55899 30.0736 7.94004 30.2918C8.3169 30.5127 8.66885 30.7612 8.99346 31.0345C9.32608 31.3162 9.62989 31.6227 9.89776 31.9484C10.1697 32.2798 10.4127 32.6359 10.6211 33.0115C10.831 33.3843 11.0077 33.7791 11.1472 34.1822C10.7247 34.2651 10.2967 34.3092 9.87149 34.3147C9.4462 34.3202 9.0169 34.2898 8.58751 34.2182C8.16788 34.1491 7.75098 34.0387 7.34356 33.895C6.94874 33.7515 6.55665 33.5692 6.17286 33.3483C5.79737 33.1329 5.44522 32.8845 5.1209 32.6083C4.78672 32.3266 4.48585 32.0202 4.21661 31.6943C3.94327 31.363 3.70167 31.0068 3.4918 30.6313C3.28204 30.2586 3.10538 29.8637 2.96719 29.4605C3.38965 29.3776 3.81768 29.3336 4.24288 29.3281C4.51348 29.3226 4.78546 29.3363 5.05753 29.364C4.91114 28.7014 4.79659 28.0304 4.71651 27.3538C4.6294 26.6276 4.58116 25.8794 4.57422 25.1145C4.57286 24.9157 4.73155 24.7528 4.92755 24.7528C5.12637 24.7501 5.2879 24.9101 5.28936 25.1063C5.2962 25.8296 5.34317 26.553 5.42881 27.271C5.51563 27.9945 5.63995 28.7068 5.80147 29.3999ZM10.6516 38.429C10.6736 38.4539 10.6929 38.4814 10.7081 38.509C11.0822 38.3737 11.4729 38.2688 11.872 38.1971C12.2834 38.1226 12.7113 38.0839 13.1531 38.0839C13.5963 38.0839 14.0257 38.1226 14.4357 38.1971C14.8623 38.2744 15.2792 38.3876 15.6769 38.5367C16.0785 38.6886 16.4665 38.8765 16.8351 39.0944C17.201 39.3126 17.5461 39.5611 17.8636 39.8372L17.8761 39.8482C17.5502 40.1299 17.2037 40.3839 16.8392 40.5992C16.4732 40.8174 16.084 41.0051 15.6768 41.1569C15.279 41.3061 14.8621 41.4221 14.437 41.4993C14.0256 41.574 13.5961 41.6126 13.153 41.6126C12.7112 41.6126 12.2834 41.5739 11.8719 41.4993C11.4439 41.4221 11.0282 41.3061 10.6308 41.1569C10.2289 41.0079 9.84092 40.8201 9.47237 40.602C9.10655 40.3839 8.76143 40.1354 8.44249 39.8593L8.43155 39.8482C8.7546 39.5666 9.10381 39.3126 9.4711 39.0943C9.64795 38.9895 9.83008 38.89 10.0165 38.8017C9.53057 38.2771 9.07081 37.7249 8.63995 37.1478C8.17881 36.5319 7.75089 35.8886 7.36026 35.2205C7.26085 35.0492 7.31749 34.8312 7.48721 34.7317C7.6584 34.6322 7.87794 34.6875 7.97735 34.8587C8.3543 35.5021 8.76856 36.1233 9.21299 36.717C9.65753 37.3135 10.138 37.885 10.6516 38.429ZM42.0214 34.8587C42.1208 34.6875 42.3416 34.6323 42.5115 34.7317C42.6813 34.8312 42.7393 35.0492 42.6385 35.2205C42.2478 35.8887 41.8197 36.532 41.3586 37.1478C40.928 37.7248 40.4668 38.277 39.9822 38.8017C40.17 38.89 40.3522 38.9895 40.5304 39.0943C40.8946 39.3125 41.2428 39.5666 41.5686 39.8482L41.5562 39.8593C41.237 40.1354 40.8919 40.3839 40.5275 40.602C40.159 40.82 39.7709 41.0078 39.3693 41.1569C38.9703 41.3061 38.5548 41.4221 38.1281 41.4993C37.7166 41.574 37.2875 41.6126 36.8443 41.6126C36.4024 41.6126 35.9745 41.5739 35.5631 41.4993C35.1352 41.4221 34.7194 41.3061 34.3219 41.1569C33.9174 41.0079 33.5281 40.8174 33.1608 40.5992C32.7964 40.3839 32.4483 40.1298 32.1226 39.8482L32.1351 39.8372C32.454 39.5611 32.7978 39.3126 33.1636 39.0944C33.5336 38.8765 33.9201 38.6886 34.3218 38.5367C34.7209 38.3877 35.1351 38.2744 35.563 38.1971C35.9744 38.1226 36.4023 38.0839 36.8442 38.0839C37.2874 38.0839 37.7166 38.1226 38.1267 38.1971C38.5271 38.2688 38.9163 38.3738 39.2906 38.509C39.3057 38.4814 39.3251 38.4539 39.3485 38.429C39.8607 37.8851 40.3427 37.3135 40.7871 36.7171C41.2315 36.1233 41.6457 35.5021 42.0214 34.8587ZM44.7093 25.1063C44.7107 24.9102 44.8735 24.7502 45.0694 24.7529C45.2684 24.7529 45.4257 24.9158 45.4257 25.1145C45.4175 25.8795 45.3691 26.6277 45.282 27.3539C45.2021 28.0305 45.0874 28.7015 44.9397 29.3641C45.213 29.3364 45.4865 29.3227 45.757 29.3282C46.1822 29.3338 46.6103 29.3778 47.0327 29.4606C46.8932 29.8638 46.7179 30.2587 46.508 30.6314C46.2983 31.0069 46.0553 31.3631 45.7819 31.6944C45.5141 32.0203 45.2116 32.3268 44.879 32.6084C44.553 32.8846 44.2012 33.133 43.824 33.3484C43.4432 33.5693 43.0511 33.7516 42.6533 33.8951C42.2476 34.0388 41.8307 34.1492 41.4109 34.2183C40.9828 34.2899 40.5521 34.3203 40.127 34.3148C39.7018 34.3092 39.2737 34.2651 38.8513 34.1823C38.9921 33.7792 39.1674 33.3844 39.3758 33.0116C39.5858 32.636 39.8288 32.2799 40.1022 31.9485C40.3699 31.6228 40.6723 31.3162 41.005 31.0346C41.3294 30.7612 41.6815 30.5127 42.0598 30.2919C42.4396 30.0737 42.8329 29.8915 43.2305 29.748C43.5453 29.6348 43.8655 29.5465 44.1886 29.4774C44.1886 29.4525 44.1913 29.4249 44.197 29.4C44.3571 28.7069 44.484 27.9946 44.5697 27.2712C44.6554 26.5531 44.7024 25.8297 44.7093 25.1063ZM42.2835 15.4365C42.1896 15.2627 42.2518 15.0445 42.4257 14.9479C42.5983 14.854 42.8179 14.9175 42.913 15.0915C43.2637 15.7266 43.5812 16.3893 43.8656 17.0685C44.1059 17.6455 44.3213 18.2392 44.509 18.844C44.7935 18.6229 45.0916 18.427 45.4009 18.2559C45.7723 18.0461 46.1657 17.8721 46.5703 17.7312C46.6518 18.1537 46.6974 18.5816 46.7042 19.0069C46.7099 19.4321 46.6766 19.8628 46.6047 20.2907C46.5356 20.7104 46.428 21.1274 46.2816 21.5334C46.1395 21.9282 45.9601 22.3175 45.7419 22.6957L45.7267 22.7206C45.5086 23.0962 45.2614 23.4439 44.9895 23.7671C44.7093 24.0957 44.4041 24.3966 44.0811 24.6617C43.7482 24.9378 43.3908 25.1808 43.0179 25.388C42.6452 25.5951 42.2531 25.7718 41.8472 25.9099C41.7657 25.4901 41.7202 25.0622 41.7148 24.6369C41.7093 24.2117 41.7423 23.781 41.8128 23.3502C41.8832 22.9333 41.9908 22.5163 42.1371 22.1104C42.2808 21.713 42.4604 21.3208 42.6812 20.9397C42.8993 20.5615 43.1478 20.2081 43.4226 19.885C43.5798 19.6972 43.7441 19.5233 43.9153 19.3576L43.9099 19.3384C43.7097 18.6591 43.4735 17.9937 43.203 17.3448C42.9325 16.693 42.6231 16.0551 42.2835 15.4365ZM35.8749 8.47568C35.7092 8.36797 35.6649 8.14434 35.7728 7.97861C35.8831 7.81572 36.1053 7.76885 36.2697 7.8792C36.8136 8.23818 37.3398 8.6248 37.8464 9.03623C38.2386 9.35381 38.6194 9.68516 38.9867 10.0302L38.9966 10.0054C39.147 9.59951 39.3348 9.21016 39.5527 8.8457C39.7723 8.47842 40.025 8.13066 40.3065 7.80469L40.3177 7.81572C40.5938 8.13603 40.8422 8.48115 41.0604 8.8457C41.2784 9.21572 41.4663 9.60215 41.6154 10.0054C41.7645 10.403 41.8806 10.8172 41.9578 11.2451C42.0324 11.6565 42.0711 12.0846 42.0711 12.529C42.0711 12.9708 42.0324 13.3987 41.9578 13.8103C41.8806 14.2382 41.7646 14.6523 41.6154 15.05C41.4664 15.4559 41.2785 15.8452 41.059 16.2097C40.8409 16.5769 40.5883 16.9276 40.3065 17.2506L40.2956 17.2396C40.0196 16.9193 39.7709 16.5769 39.5528 16.2097C39.3333 15.8396 39.1471 15.4531 38.9967 15.05C38.8476 14.6523 38.7329 14.2382 38.6557 13.8103C38.5811 13.3987 38.5424 12.9708 38.5424 12.529C38.5424 12.0845 38.5811 11.6564 38.6557 11.2451C38.6818 11.0961 38.7136 10.9441 38.7509 10.7979C38.3174 10.3754 37.8646 9.97226 37.3951 9.59131C36.9089 9.19639 36.3994 8.82363 35.8749 8.47568ZM24.6023 6.50137C24.6023 6.31367 24.7556 6.16182 24.942 6.16182C25.1284 6.16182 25.2816 6.31367 25.2816 6.50137V8.58057C25.2816 8.76836 25.1285 8.92031 24.942 8.92031C24.7555 8.92031 24.6023 8.76836 24.6023 8.58057V6.50137ZM32.5975 10.726C32.7589 10.6322 32.966 10.6902 33.0584 10.8503C33.151 11.0132 33.0958 11.2203 32.9343 11.3113L31.1328 12.3523C30.9712 12.4436 30.764 12.3883 30.6716 12.2282C30.5791 12.0652 30.6342 11.8582 30.7972 11.767L32.5975 10.726ZM16.9498 11.3113C16.7868 11.2203 16.7316 11.0132 16.8241 10.8503C16.9165 10.6901 17.1236 10.6322 17.2864 10.726L19.0868 11.767C19.2484 11.8582 19.305 12.0652 19.211 12.2282C19.1186 12.3884 18.9115 12.4436 18.7499 12.3523L16.9498 11.3113ZM28.5991 8.52256C28.6931 8.3625 28.9001 8.30723 29.063 8.40107C29.2232 8.49228 29.2784 8.70205 29.1859 8.8623L28.5509 9.96123C28.4583 10.1241 28.2499 10.1793 28.0884 10.0854C27.9268 9.9915 27.8716 9.78447 27.9642 9.62158L28.5991 8.52256ZM20.6967 8.8623C20.6041 8.70205 20.6595 8.49228 20.8209 8.40107C20.9825 8.30723 21.1909 8.3625 21.2834 8.52256L21.9185 9.62158C22.0109 9.78447 21.9558 9.9915 21.7956 10.0854C21.6326 10.1793 21.4256 10.1241 21.3317 9.96123L20.6967 8.8623ZM21.3456 35.1072C21.3263 35.2868 21.1731 35.4248 20.9894 35.4248C20.7905 35.4248 20.629 35.2646 20.629 35.0658C20.629 35.0271 20.636 34.9912 20.647 34.9554C20.7326 34.555 20.7878 34.1573 20.7975 33.7598C20.8072 33.4257 20.7852 33.0889 20.7271 32.7521C20.0215 32.5284 19.3575 32.2081 18.7529 31.8104C18.0736 31.3658 17.4662 30.822 16.9499 30.1979C16.4418 29.5849 16.0207 28.8891 15.7101 28.1408C15.4091 27.4146 15.2116 26.6332 15.137 25.8214C15.1191 25.6254 15.2655 25.4487 15.4615 25.4321C15.6575 25.4156 15.8329 25.5592 15.8495 25.7553C15.917 26.4952 16.0966 27.2048 16.3727 27.8647C16.6528 28.5468 17.0367 29.1791 17.502 29.7396C17.9713 30.3084 18.5264 30.8026 19.1449 31.2113C19.7538 31.6089 20.4233 31.921 21.137 32.1253C21.2599 32.161 21.362 32.2633 21.3898 32.3959C21.4862 32.8541 21.525 33.3153 21.514 33.7766C21.5016 34.2209 21.4423 34.6655 21.3456 35.1072ZM11.8401 45.9035C11.6538 45.9035 11.5005 45.7517 11.5005 45.5638C11.5005 45.3788 11.6538 45.2242 11.8401 45.2242H22.7856C21.768 45.1165 20.7712 44.9315 19.8035 44.6774C18.09 44.2273 16.4639 43.5592 14.9575 42.7088C14.785 42.6093 14.7257 42.3912 14.8236 42.2199C14.9203 42.0487 15.1398 41.988 15.3124 42.0846C16.7647 42.9075 18.3316 43.5509 19.9842 43.9816C21.5801 44.4013 23.2617 44.625 24.9984 44.625C26.7352 44.625 28.4167 44.4013 30.0156 43.9816C31.6666 43.5509 33.2352 42.9075 34.6874 42.0846C34.8586 41.988 35.0781 42.0487 35.1762 42.2199C35.2729 42.3912 35.2121 42.6093 35.0409 42.7088C33.536 43.5592 31.9083 44.2273 30.1949 44.6774C29.2274 44.9315 28.2305 45.1165 27.2129 45.2242H33.5251C33.7113 45.2242 33.8646 45.3788 33.8646 45.5638C33.8646 45.7517 33.7114 45.9035 33.5251 45.9035H11.8401ZM22.9208 47.4608C22.7345 47.4608 22.5812 47.3089 22.5812 47.1211C22.5812 46.9334 22.7345 46.7814 22.9208 46.7814H40.6269C40.8147 46.7814 40.9665 46.9334 40.9665 47.1211C40.9665 47.3089 40.8147 47.4608 40.6269 47.4608H22.9208ZM42.4382 47.4608C42.2518 47.4608 42.0999 47.3089 42.0999 47.1211C42.0999 46.9334 42.2518 46.7814 42.4382 46.7814H44.6525C44.8404 46.7814 44.9923 46.9334 44.9923 47.1211C44.9923 47.3089 44.8404 47.4608 44.6525 47.4608H42.4382ZM6.9294 47.4139C6.7418 47.4139 6.58975 47.262 6.58975 47.0742C6.58975 46.8864 6.74171 46.7345 6.9294 46.7345H15.3193C15.5071 46.7345 15.659 46.8864 15.659 47.0742C15.659 47.262 15.5071 47.4139 15.3193 47.4139H6.9294ZM17.346 22.345V17.4716H16.5384V20.5421C16.5384 20.7933 16.5742 21.0335 16.6433 21.2571C16.715 21.4891 16.8227 21.7071 16.9595 21.9061C17.0686 22.0662 17.1997 22.2153 17.346 22.345Z" fill="black"/>
</svg>
