<svg width="130" height="31" viewBox="0 0 130 31" fill="none" xmlns="http://www.w3.org/2000/svg">
<g clip-path="url(#clip0_2_47)">
<path d="M15 0.760132C6.71512 0.760132 0 7.43643 0 15.6734C0 23.9104 6.71512 30.5867 15 30.5867C23.2849 30.5867 30 23.9104 30 15.6734C30 7.43643 23.2849 0.760132 15 0.760132ZM10.4302 23.4942H6.77616V11.815H10.4302V23.4942ZM8.59884 10.211C7.43023 10.211 6.47965 9.26591 6.47965 8.10406C6.47965 6.94221 7.43023 5.99713 8.59884 5.99713C9.76744 5.99713 10.718 6.94221 10.718 8.10406C10.718 9.26591 9.76744 10.211 8.59884 10.211ZM24.0959 23.4942H20.4506V17.815C20.4506 16.4624 20.4244 14.7197 18.5494 14.7197C16.6483 14.7197 16.3605 16.1937 16.3605 17.7197V23.5029H12.7151V11.815H16.2209V13.4104H16.2645C16.9797 12.1965 18.3052 11.4682 19.718 11.5202C23.4157 11.5202 24.0959 13.9393 24.0959 17.0867V23.4942Z" fill="white"/>
</g>
<g clip-path="url(#clip1_2_47)">
<path d="M65 3.2025C69.005 3.2025 69.48 3.2175 71.0613 3.29C72.6963 3.365 74.38 3.7375 75.5713 4.92875C76.7738 6.13125 77.135 7.79875 77.21 9.43875C77.2825 11.02 77.2975 11.495 77.2975 15.5C77.2975 19.505 77.2825 19.98 77.21 21.5613C77.1362 23.1875 76.755 24.8875 75.5713 26.0713C74.3688 27.2738 72.7025 27.635 71.0613 27.71C69.48 27.7825 69.005 27.7975 65 27.7975C60.995 27.7975 60.52 27.7825 58.9388 27.71C57.325 27.6362 55.6025 27.2463 54.4288 26.0713C53.2325 24.875 52.865 23.1913 52.79 21.5613C52.7175 19.98 52.7025 19.505 52.7025 15.5C52.7025 11.495 52.7175 11.02 52.79 9.43875C52.8638 7.81875 53.2487 6.10875 54.4288 4.92875C55.6287 3.72875 57.3025 3.365 58.9388 3.29C60.52 3.2175 60.995 3.2025 65 3.2025ZM65 0.5C60.9262 0.5 60.415 0.5175 58.815 0.59C56.4963 0.69625 54.1937 1.34125 52.5175 3.0175C50.835 4.7 50.1962 6.9975 50.09 9.315C50.0175 10.915 50 11.4262 50 15.5C50 19.5737 50.0175 20.085 50.09 21.685C50.1962 24.0012 50.8437 26.31 52.5175 27.9825C54.1988 29.6637 56.5 30.3037 58.815 30.41C60.415 30.4825 60.9262 30.5 65 30.5C69.0737 30.5 69.585 30.4825 71.185 30.41C73.5025 30.3037 75.8075 29.6575 77.4825 27.9825C79.1663 26.2987 79.8037 24.0025 79.91 21.685C79.9825 20.085 80 19.5737 80 15.5C80 11.4262 79.9825 10.915 79.91 9.315C79.8037 6.99625 79.1575 4.6925 77.4825 3.0175C75.8037 1.33875 73.4963 0.695 71.185 0.59C69.585 0.5175 69.0737 0.5 65 0.5Z" fill="white"/>
<path d="M65 7.79749C60.7462 7.79749 57.2975 11.2462 57.2975 15.5C57.2975 19.7537 60.7462 23.2025 65 23.2025C69.2537 23.2025 72.7025 19.7537 72.7025 15.5C72.7025 11.2462 69.2537 7.79749 65 7.79749ZM65 20.5C62.2387 20.5 60 18.2612 60 15.5C60 12.7387 62.2387 10.5 65 10.5C67.7612 10.5 70 12.7387 70 15.5C70 18.2612 67.7612 20.5 65 20.5Z" fill="white"/>
<path d="M73.0075 9.29251C74.0016 9.29251 74.8075 8.48662 74.8075 7.4925C74.8075 6.49839 74.0016 5.6925 73.0075 5.6925C72.0134 5.6925 71.2075 6.49839 71.2075 7.4925C71.2075 8.48662 72.0134 9.29251 73.0075 9.29251Z" fill="white"/>
</g>
<g clip-path="url(#clip2_2_47)">
<path d="M130 15.5912C130 23.0775 124.507 29.2837 117.337 30.41V19.9562H120.824L121.488 15.6312H117.337V12.825C117.337 11.6412 117.917 10.4887 119.775 10.4887H121.661V6.80625C121.661 6.80625 119.949 6.51375 118.312 6.51375C114.895 6.51375 112.663 8.585 112.663 12.3337V15.63H108.864V19.955H112.663V30.4087C105.494 29.2812 100 23.0762 100 15.5912C100 7.3075 106.716 0.591248 115 0.591248C123.284 0.591248 130 7.30625 130 15.5912Z" fill="white"/>
</g>
<defs>
<clipPath id="clip0_2_47">
<rect width="30" height="30" fill="white" transform="translate(0 0.5)"/>
</clipPath>
<clipPath id="clip1_2_47">
<rect width="30" height="30" fill="white" transform="translate(50 0.5)"/>
</clipPath>
<clipPath id="clip2_2_47">
<rect width="30" height="30" fill="white" transform="translate(100 0.5)"/>
</clipPath>
</defs>
</svg>
