<svg width="47" height="47" viewBox="0 0 47 47" fill="none" xmlns="http://www.w3.org/2000/svg">
<path d="M11.8564 16.7195C10.6188 16.7195 9.61856 17.7205 9.61856 18.9591C9.61856 20.1976 10.6188 21.1987 11.8564 21.1987C13.094 21.1987 14.0942 20.1976 14.0942 18.9591C14.0773 17.7205 13.077 16.7195 11.8564 16.7195Z" fill="white"/>
<path d="M11.8564 16.7195C10.6188 16.7195 9.61856 17.7205 9.61856 18.9591C9.61856 20.1976 10.6188 21.1987 11.8564 21.1987C13.094 21.1987 14.0942 20.1976 14.0942 18.9591C14.0773 17.7205 13.077 16.7195 11.8564 16.7195Z" fill="#00FFFF"/>
<path d="M41.6601 28.647C40.2869 18.8743 36.6928 7.37093 30.8779 7.96476C25.5546 8.49072 25.1307 10.5776 21.8418 10.6115C18.5529 10.5776 18.1291 8.49072 12.8227 7.94779C6.99081 7.35396 3.41368 18.8573 2.04047 28.63C0.667256 38.4028 7.10948 37.3678 9.24558 35.3488C11.3817 33.3298 15.976 28.9524 16.8745 28.7318C17.6883 28.5282 26.0462 28.5282 26.86 28.7318C27.7585 28.9524 32.3528 33.3298 34.4889 35.3488C36.5911 37.3848 43.0333 38.4197 41.6601 28.647ZM11.8564 23.4552C9.38121 23.4552 7.36378 21.4362 7.36378 18.9591C7.36378 16.482 9.38121 14.4629 11.8564 14.4629C14.3315 14.4629 16.349 16.482 16.349 18.9591C16.332 21.4362 14.3315 23.4552 11.8564 23.4552ZM30.1319 14.9719C30.7762 14.3272 31.8273 14.3272 32.4715 14.9719C33.1157 15.6167 33.1157 16.6686 32.4715 17.3133C31.8273 17.9581 30.7762 17.9581 30.1319 17.3133C29.4877 16.6686 29.4877 15.6167 30.1319 14.9719ZM26.86 20.2994C26.2157 19.6547 26.2157 18.6028 26.86 17.9581C27.5042 17.3133 28.5553 17.3133 29.1995 17.9581C29.8437 18.6028 29.8437 19.6547 29.1995 20.2994C28.5383 20.9442 27.5042 20.9442 26.86 20.2994ZM32.1833 23.3025C31.5391 23.9473 30.488 23.9473 29.8437 23.3025C29.1995 22.6578 29.1995 21.6059 29.8437 20.9611C30.488 20.3164 31.5391 20.3164 32.1833 20.9611C32.8275 21.6059 32.8275 22.6578 32.1833 23.3025ZM35.4722 20.2994C34.828 20.9442 33.7769 20.9442 33.1327 20.2994C32.4884 19.6547 32.4884 18.6028 33.1327 17.9581C33.7769 17.3133 34.828 17.3133 35.4722 17.9581C36.1164 18.6028 36.1164 19.6547 35.4722 20.2994Z" fill="white"/>
<path d="M41.6601 28.647C40.2869 18.8743 36.6928 7.37093 30.8779 7.96476C25.5546 8.49072 25.1307 10.5776 21.8418 10.6115C18.5529 10.5776 18.1291 8.49072 12.8227 7.94779C6.99081 7.35396 3.41368 18.8573 2.04047 28.63C0.667256 38.4028 7.10948 37.3678 9.24558 35.3488C11.3817 33.3298 15.976 28.9524 16.8745 28.7318C17.6883 28.5282 26.0462 28.5282 26.86 28.7318C27.7585 28.9524 32.3528 33.3298 34.4889 35.3488C36.5911 37.3848 43.0333 38.4197 41.6601 28.647ZM11.8564 23.4552C9.38121 23.4552 7.36378 21.4362 7.36378 18.9591C7.36378 16.482 9.38121 14.4629 11.8564 14.4629C14.3315 14.4629 16.349 16.482 16.349 18.9591C16.332 21.4362 14.3315 23.4552 11.8564 23.4552ZM30.1319 14.9719C30.7762 14.3272 31.8273 14.3272 32.4715 14.9719C33.1157 15.6167 33.1157 16.6686 32.4715 17.3133C31.8273 17.9581 30.7762 17.9581 30.1319 17.3133C29.4877 16.6686 29.4877 15.6167 30.1319 14.9719ZM26.86 20.2994C26.2157 19.6547 26.2157 18.6028 26.86 17.9581C27.5042 17.3133 28.5553 17.3133 29.1995 17.9581C29.8437 18.6028 29.8437 19.6547 29.1995 20.2994C28.5383 20.9442 27.5042 20.9442 26.86 20.2994ZM32.1833 23.3025C31.5391 23.9473 30.488 23.9473 29.8437 23.3025C29.1995 22.6578 29.1995 21.6059 29.8437 20.9611C30.488 20.3164 31.5391 20.3164 32.1833 20.9611C32.8275 21.6059 32.8275 22.6578 32.1833 23.3025ZM35.4722 20.2994C34.828 20.9442 33.7769 20.9442 33.1327 20.2994C32.4884 19.6547 32.4884 18.6028 33.1327 17.9581C33.7769 17.3133 34.828 17.3133 35.4722 17.9581C36.1164 18.6028 36.1164 19.6547 35.4722 20.2994Z" fill="#00FFFF"/>
</svg>
