<svg width="30" height="30" viewBox="0 0 30 30" fill="none" xmlns="http://www.w3.org/2000/svg">
<rect width="30" height="30" fill="white"/>
<rect width="30" height="30" fill="#00FFFF"/>
<path d="M3.92577 8.71289C4.5703 9.05273 13.5234 13.9336 13.8574 14.1094C14.1914 14.2852 14.5312 14.3672 15.0586 14.3672C15.5859 14.3672 15.9258 14.2852 16.2598 14.1094C16.5937 13.9336 25.5469 9.05273 26.1914 8.71289C26.4316 8.58984 26.8359 8.36719 26.9238 8.11523C27.0762 7.66992 26.9121 7.5 26.2617 7.5H15.0586H3.85546C3.20507 7.5 3.04101 7.67578 3.19335 8.11523C3.28124 8.37305 3.68554 8.58984 3.92577 8.71289Z" fill="black"/>
<path d="M26.7012 8.9765C26.2207 9.2226 21.9082 12.2929 19.0547 14.1386L23.8711 19.5585C23.9883 19.6757 24.041 19.8163 23.9766 19.8867C23.9062 19.9511 23.7539 19.916 23.6309 19.8046L17.8535 14.9296C16.9805 15.4921 16.3652 15.8788 16.2598 15.9374C15.8086 16.166 15.4922 16.1953 15.0586 16.1953C14.625 16.1953 14.3086 16.166 13.8574 15.9374C13.7461 15.8788 13.1367 15.4921 12.2637 14.9296L6.48633 19.8046C6.36914 19.9218 6.21094 19.957 6.14063 19.8867C6.07031 19.8222 6.12305 19.6757 6.24023 19.5585L11.0508 14.1386C8.19727 12.2929 3.83789 9.2226 3.35742 8.9765C2.8418 8.71283 2.8125 9.02338 2.8125 9.26361C2.8125 9.50385 2.8125 21.2753 2.8125 21.2753C2.8125 21.8203 3.61523 22.4999 4.18945 22.4999H15.0586H25.9277C26.502 22.4999 27.1875 21.8144 27.1875 21.2753C27.1875 21.2753 27.1875 9.49799 27.1875 9.26361C27.1875 9.01752 27.2227 8.71283 26.7012 8.9765Z" fill="black"/>
</svg>
