<svg width="50" height="50" viewBox="0 0 50 50" fill="none" xmlns="http://www.w3.org/2000/svg">
<path d="M30.625 23.2031L30.9766 21.0547C31.0547 20.5273 30.7031 20.0195 30.1562 19.9219C29.6289 19.8438 29.1211 20.1953 29.0234 20.7422L28.6914 22.8711C28.3398 24.6289 26.7969 25.918 25 25.918C23.2031 25.918 21.6602 24.6484 21.3281 22.9102L20.9766 20.7617C20.8984 20.2344 20.3906 19.8633 19.8437 19.9414C19.3164 20.0195 18.9453 20.5273 19.0234 21.0742L19.375 23.2617C19.9023 25.9375 22.2656 27.8906 24.9805 27.8906C27.6953 27.8906 30.0977 25.918 30.625 23.2031Z" fill="black"/>
<path d="M17.8516 13.6914L18.5156 17.8711C18.5547 18.1641 18.7305 18.418 18.9844 18.5742C19.2383 18.7305 19.5508 18.75 19.8242 18.6523C23.0664 17.4414 26.9141 17.4414 30.1367 18.6523C30.2539 18.6914 30.3711 18.7109 30.4883 18.7109C30.6641 18.7109 30.8203 18.6719 30.9766 18.5742C31.2305 18.418 31.4062 18.1641 31.4453 17.8711L32.1094 13.6914C33.0664 13.3984 33.75 12.5 33.75 11.4648C33.75 10.7617 33.4375 10.0977 32.8906 9.64844C32.3437 9.19922 31.6211 9.04297 30.918 9.17969C30.0195 9.375 29.2969 10.1172 29.1211 11.0352C29.0234 11.543 29.1016 12.0508 29.3359 12.5C28.9844 12.8711 28.6523 13.0664 28.3984 13.0469C28.1836 13.0273 27.6562 12.832 26.8555 11.543C27.0508 11.2891 27.207 10.9766 27.2852 10.6445C27.4609 9.88281 27.2461 9.02344 26.6992 8.45703C26.25 7.96875 25.5469 7.71484 24.8047 7.77344C24.4531 7.79297 24.1211 7.89063 23.8086 8.04688C23.1445 8.37891 22.7148 9.00391 22.6172 9.78516C22.5391 10.4297 22.6953 11.0742 23.0859 11.5625C22.2852 12.8711 21.7578 13.0469 21.543 13.0664C21.2891 13.0859 20.9766 12.8906 20.6055 12.5195C20.8203 12.0703 20.8984 11.5625 20.8203 11.0547C20.6445 10.1367 19.9414 9.39453 19.0234 9.19922C18.3203 9.04297 17.5977 9.21875 17.0508 9.66797C16.5039 10.1172 16.1914 10.7813 16.1914 11.4844C16.2109 12.5195 16.8945 13.3984 17.8516 13.6914ZM31.0937 11.3867C31.1133 11.25 31.2305 11.1328 31.3672 11.0938C31.5234 11.0547 31.6211 11.1133 31.6992 11.1719C31.7969 11.25 31.8359 11.3477 31.8359 11.4648C31.8359 11.6602 31.6797 11.8359 31.4453 11.8359C31.4062 11.8359 31.3672 11.8359 31.3281 11.8359C31.3086 11.8164 31.2695 11.7969 31.25 11.7578C31.1523 11.7188 31.0547 11.6016 31.0937 11.3867ZM24.7266 9.78516C24.7852 9.74609 24.8633 9.72656 24.9609 9.72656C24.9805 9.72656 25 9.72656 25 9.72656C25.1562 9.72656 25.2539 9.76563 25.293 9.80469C25.3711 9.90234 25.4297 10.0781 25.3906 10.2148C25.3711 10.2734 25.3516 10.332 25.3711 10.3125C25.332 10.3516 25.2734 10.4102 25.1953 10.4688C25.1758 10.4688 25.1758 10.4883 25.1562 10.4883C25.0977 10.5273 25.0391 10.5664 24.9805 10.6055C24.9219 10.5469 24.8633 10.5078 24.7852 10.4688C24.7461 10.4492 24.7266 10.4297 24.6875 10.4102C24.6094 10.332 24.5508 10.1758 24.5703 10.0195C24.6094 9.94141 24.6484 9.82422 24.7266 9.78516ZM21.7187 15C22.9102 14.9023 23.9648 14.0234 25 12.207C26.0352 14.0234 27.0898 14.9023 28.2812 15C28.8867 15.0586 29.4531 14.8828 30.0391 14.4922L29.7266 16.4258C28.2227 15.9766 26.6406 15.7617 25 15.7617C23.3594 15.7617 21.7969 15.9766 20.2734 16.4258L19.9609 14.4922C20.5469 14.8828 21.1133 15.0586 21.7187 15ZM18.3008 11.1719C18.3594 11.1328 18.4375 11.0938 18.5352 11.0938C18.5547 11.0938 18.5938 11.0938 18.6328 11.1133C18.7695 11.1328 18.8867 11.2695 18.9063 11.3867C18.9453 11.6016 18.8281 11.7188 18.7695 11.7578C18.75 11.7773 18.7109 11.7969 18.6914 11.8359C18.6523 11.8359 18.6133 11.8359 18.5742 11.8359H18.5547C18.3398 11.8359 18.1836 11.6602 18.1836 11.4648C18.1641 11.3477 18.2227 11.25 18.3008 11.1719Z" fill="black"/>
<path d="M49.1602 31.3086C49.0039 30.4297 48.457 29.668 47.6562 29.2578C46.3281 28.5938 43.9258 27.7344 42.7539 27.3242V27.2656C43.3789 26.6992 43.8281 25.9766 44.0625 25.1758C44.707 24.9805 45.2344 24.5117 45.5078 23.8672C45.7031 23.5156 45.8008 23.1055 45.8008 22.7148C45.8008 22.4414 45.7617 22.168 45.6641 21.9141C45.5859 21.6016 45.4297 21.3281 45.1953 21.1133C45.4492 19.6875 45.0781 18.2227 44.1992 17.0703C43.1836 15.7617 41.6211 14.9805 39.8828 14.9414H39.4336C37.7148 14.9805 36.1328 15.7617 35.1172 17.0703C34.2187 18.2227 33.8672 19.6875 34.1211 21.1133C33.9062 21.3281 33.7305 21.6016 33.6523 21.9141C33.5547 22.168 33.5156 22.4414 33.5156 22.7344C33.5156 23.125 33.6133 23.5156 33.7891 23.8867C34.0625 24.5313 34.6094 25 35.2539 25.1953C35.4883 25.9961 35.957 26.7187 36.5625 27.2852V27.3438C36.0937 27.5 35.4102 27.7539 34.707 28.0078C34.1992 28.2031 33.9453 28.7695 34.1211 29.2773C34.3164 29.7852 34.8828 30.0391 35.3906 29.8438C36.6992 29.3555 37.8516 28.9648 37.8516 28.9648C38.2422 28.8281 38.5156 28.457 38.5156 28.0273V26.7969C38.5156 26.5039 38.3789 26.2109 38.1445 26.0156L38.0273 25.918C37.5 25.5273 37.1484 24.9219 37.0508 24.2578L37.0313 24.1211C36.9531 23.6523 36.543 23.3008 36.0547 23.3008H35.957C35.7617 23.3008 35.625 23.1641 35.5859 23.0469C35.5664 23.0078 35.5664 22.9883 35.5469 22.9492C35.5078 22.8711 35.4688 22.7734 35.4688 22.6758C35.4688 22.5977 35.4883 22.5586 35.4883 22.5195C35.4883 22.5 35.5078 22.4805 35.5078 22.4609L35.7031 22.3438C36.0547 22.1289 36.25 21.6992 36.1523 21.2891L36.0742 20.8984C35.8594 19.9414 36.0547 18.9844 36.6602 18.2227C37.3047 17.3828 38.3398 16.875 39.4336 16.8555H39.8242C40.957 16.8945 41.9727 17.3828 42.6172 18.2227C43.2227 18.9844 43.418 19.9414 43.2031 20.8984L43.1055 21.2695C43.0078 21.6797 43.1836 22.1094 43.5547 22.3438L43.75 22.4609C43.75 22.4805 43.7695 22.5 43.7695 22.5195C43.7891 22.5781 43.8086 22.6172 43.8086 22.6758C43.8086 22.7539 43.7891 22.8516 43.75 22.9102C43.7305 22.9492 43.7109 22.9883 43.6914 23.0273C43.6523 23.1445 43.5156 23.2617 43.3203 23.2617H43.2227C42.7344 23.2617 42.3242 23.6133 42.2461 24.082L42.2266 24.2188C42.1289 24.8633 41.7578 25.4688 41.2305 25.8789L41.1328 25.957C40.8984 26.1523 40.7617 26.4258 40.7617 26.7383V27.9687C40.7617 28.3984 41.0352 28.7695 41.4258 28.9062C41.4648 28.9258 45.1172 30.1563 46.7578 30.9766C46.9922 31.0938 47.168 31.3281 47.207 31.6016C47.3828 32.5977 47.4609 34.0625 47.5 35.0391H41.0156C40.4687 35.0391 40.0391 35.4883 40.0391 36.0156C40.0391 36.543 40.4883 36.9922 41.0156 36.9922H48.5156C48.7891 36.9922 49.0234 36.8945 49.2188 36.6992C49.3945 36.5039 49.5117 36.25 49.4922 35.9961C49.5312 35.918 49.4727 33.0664 49.1602 31.3086Z" fill="black"/>
<path d="M14.4141 23.0664C14.375 23.1836 14.2383 23.3203 14.043 23.3203H13.9453C13.457 23.3203 13.0469 23.6719 12.9688 24.1406L12.9492 24.2773C12.8516 24.9219 12.4805 25.5273 11.9531 25.9375L11.8555 26.0156C11.6211 26.2109 11.4844 26.4844 11.4844 26.7969V28.0273C11.4844 28.457 11.7578 28.8281 12.1484 28.9648C12.1484 28.9648 13.3008 29.3555 14.6094 29.8438C15.1172 30.0391 15.6836 29.7656 15.8789 29.2578C16.0742 28.75 15.8008 28.1836 15.293 27.9883C14.5703 27.7148 13.9062 27.4805 13.4375 27.3242V27.2656C14.0625 26.6992 14.5117 25.9766 14.7461 25.1758C15.3906 24.9805 15.918 24.5117 16.2109 23.8672C16.3867 23.5156 16.4844 23.1055 16.4844 22.7148C16.4844 22.4414 16.4453 22.1875 16.3477 21.9141C16.2695 21.6016 16.0938 21.3281 15.8789 21.0938C16.1328 19.668 15.7617 18.2031 14.8828 17.0508C13.8672 15.7617 12.3047 14.9805 10.5469 14.9414H10.0977C8.37891 14.9805 6.81641 15.7617 5.80078 17.0703C4.90234 18.2227 4.55078 19.668 4.80469 21.1133C4.57031 21.3281 4.41406 21.6211 4.33594 21.9336C4.23828 22.207 4.19922 22.4609 4.19922 22.7344C4.19922 23.125 4.29688 23.5156 4.47266 23.8867C4.74609 24.5313 5.29297 25 5.9375 25.1953C6.17188 25.9961 6.64062 26.7187 7.24609 27.2852V27.3438C6.07422 27.7539 3.65234 28.6133 2.32422 29.2773C1.52344 29.668 0.957031 30.4492 0.820312 31.3086C0.507812 33.0664 0.46875 35.9375 0.449219 36.0547C0.449219 36.3086 0.546875 36.582 0.722656 36.7578C0.898438 36.9531 1.15234 37.0508 1.42578 37.0508H8.92578C9.47266 37.0508 9.90234 36.6016 9.90234 36.0742C9.90234 35.5469 9.45312 35.0977 8.92578 35.0977H2.46094C2.5 34.1211 2.59766 32.6563 2.77344 31.6602C2.8125 31.3867 2.98828 31.1719 3.22266 31.0547C4.86328 30.2344 8.51562 29.0039 8.55469 28.9844C8.94531 28.8477 9.21875 28.4766 9.21875 28.0469V26.8164C9.21875 26.5234 9.08203 26.2305 8.84766 26.0352L8.73047 25.9375C8.20313 25.5469 7.85156 24.9414 7.75391 24.2773L7.73438 24.1406C7.65625 23.6719 7.24609 23.3203 6.75781 23.3203H6.66016C6.46484 23.3203 6.32813 23.1836 6.28906 23.0664C6.26953 23.0273 6.26953 23.0078 6.25 22.9688C6.21094 22.8906 6.17188 22.793 6.17188 22.6953C6.17188 22.6367 6.19141 22.5781 6.21094 22.5195V22.5L6.40625 22.3828C6.77734 22.168 6.95312 21.7383 6.85547 21.3086L6.77734 20.9375C6.5625 19.9805 6.75781 19.0234 7.36328 18.2617C8.00781 17.4219 9.04297 16.9141 10.1367 16.8945H10.5273C11.6602 16.9336 12.6758 17.4219 13.3203 18.2617C13.9258 19.0234 14.1211 19.9805 13.9062 20.957L13.8281 21.3281C13.7305 21.7383 13.9258 22.1484 14.2773 22.3828L14.4727 22.5V22.5195C14.4922 22.5977 14.5117 22.6562 14.5117 22.6953C14.5117 22.7734 14.4922 22.8711 14.4336 22.9688C14.4336 23.0078 14.4336 23.0469 14.4141 23.0664Z" fill="black"/>
<path d="M35.9961 32.7148C33.75 31.582 28.9844 29.9805 28.7891 29.9219C28.6914 29.8828 28.5742 29.8633 28.4766 29.8633H28.0664C27.7539 29.8633 27.4609 30 27.2852 30.2539L25.957 32.0313C25.8008 32.2461 25.7422 32.5 25.7617 32.7539L27.0117 41.3867C27.0898 41.875 27.5 42.2266 27.9883 42.2266H37.2852C37.5586 42.2266 37.793 42.1289 37.9883 41.9336C38.1641 41.7383 38.2812 41.4844 38.2617 41.2305C38.2617 41.0742 38.1836 37.3828 37.793 35.1172C37.6172 34.082 36.9531 33.1836 35.9961 32.7148ZM28.8281 40.2734L27.7539 32.8711L28.4961 31.875C29.6289 32.2656 33.3203 33.5547 35.1172 34.4531C35.5078 34.6484 35.7813 35.0195 35.8594 35.4492C36.1133 36.875 36.2109 39.0234 36.2695 40.2539H28.8281V40.2734Z" fill="black"/>
<path d="M22.7344 30.2539C22.5391 30 22.2656 29.8633 21.9531 29.8633H21.543C21.4453 29.8633 21.3281 29.8828 21.2305 29.9219C21.0352 29.9805 16.2695 31.582 14.0234 32.7148C13.0664 33.1836 12.4023 34.1016 12.2266 35.1367C11.8359 37.4023 11.7773 41.0938 11.7578 41.25C11.7578 41.5039 11.8555 41.7773 12.0312 41.9531C12.207 42.1484 12.4609 42.2461 12.7344 42.2461H22.0312C22.5195 42.2461 22.9297 41.8945 23.0078 41.4063L24.2578 32.7734C24.2969 32.5195 24.2187 32.2461 24.0625 32.0508L22.7344 30.2539ZM21.1719 40.2734H13.7305C13.7695 39.0234 13.8867 36.8945 14.1406 35.4688C14.2188 35.0391 14.4922 34.668 14.8828 34.4727C16.6797 33.5742 20.3516 32.2852 21.5039 31.8945L22.2461 32.8906L21.1719 40.2734Z" fill="black"/>
</svg>
